<svg xmlns="http://www.w3.org/2000/svg" xmlns:xlink="http://www.w3.org/1999/xlink" width="250" zoomAndPan="magnify" viewBox="0 0 187.5 245.999995" height="328" preserveAspectRatio="xMidYMid meet" version="1.0"><defs><g/></defs><g fill="#ffffff" fill-opacity="1"><g transform="translate(36.738371, 145.595753)"><g><path d="M 3.796875 0 L 3.796875 -1.640625 C 6.828125 -1.640625 9.035156 -2.039062 10.421875 -2.84375 C 11.816406 -3.644531 12.515625 -5.519531 12.515625 -8.46875 L 12.515625 -83.71875 C 12.515625 -86.675781 11.816406 -88.550781 10.421875 -89.34375 C 9.035156 -90.144531 6.828125 -90.546875 3.796875 -90.546875 L 3.796875 -92.203125 L 45.015625 -92.203125 C 48.390625 -92.203125 52.1875 -91.925781 56.40625 -91.375 C 60.625 -90.820312 64.859375 -89.722656 69.109375 -88.078125 C 73.367188 -86.441406 77.3125 -83.976562 80.9375 -80.6875 C 84.5625 -77.394531 87.46875 -73.050781 89.65625 -67.65625 C 91.851562 -62.257812 92.953125 -55.472656 92.953125 -47.296875 C 92.953125 -41.140625 92.085938 -35.21875 90.359375 -29.53125 C 88.628906 -23.84375 85.78125 -18.785156 81.8125 -14.359375 C 77.851562 -9.929688 72.585938 -6.429688 66.015625 -3.859375 C 59.441406 -1.285156 51.347656 0 41.734375 0 Z M 40.59375 -1.640625 C 48.519531 -1.640625 55.007812 -2.988281 60.0625 -5.6875 C 65.125 -8.382812 69.046875 -11.988281 71.828125 -16.5 C 74.609375 -21.007812 76.523438 -25.941406 77.578125 -31.296875 C 78.640625 -36.648438 79.171875 -41.984375 79.171875 -47.296875 C 79.171875 -56.910156 77.585938 -64.921875 74.421875 -71.328125 C 71.265625 -77.734375 66.945312 -82.535156 61.46875 -85.734375 C 55.988281 -88.941406 49.75 -90.546875 42.75 -90.546875 C 36.84375 -90.546875 32.644531 -90.144531 30.15625 -89.34375 C 27.675781 -88.550781 26.4375 -86.71875 26.4375 -83.84375 L 26.4375 -8.46875 C 26.4375 -5.601562 27.507812 -3.75 29.65625 -2.90625 C 31.800781 -2.0625 35.445312 -1.640625 40.59375 -1.640625 Z M 40.59375 -1.640625 "/></g></g></g><g fill="#ffffff" fill-opacity="1"><g transform="translate(65.825306, 165.828121)"><g><path d="M -0.949219 -90.550781 L -0.949219 -96.9375 L 39.710938 -96.9375 C 44.59375 -96.9375 49.371094 -96.695312 54.042969 -96.214844 C 59.007812 -95.703125 63.554688 -94.605469 67.683594 -92.914062 C 72.21875 -91.058594 75.847656 -88.273438 78.566406 -84.5625 C 81.371094 -80.734375 82.773438 -75.773438 82.773438 -69.683594 C 82.773438 -63.734375 81.464844 -58.839844 78.851562 -55 C 76.308594 -51.261719 72.988281 -48.410156 68.894531 -46.4375 C 65.121094 -44.625 61.050781 -43.410156 56.6875 -42.792969 C 52.589844 -42.210938 48.574219 -41.921875 44.640625 -41.921875 L 26.429688 -41.921875 L 26.429688 -46.664062 L 31.171875 -46.664062 L 31.171875 -8.472656 C 31.171875 -7.628906 31.246094 -7.019531 31.390625 -6.640625 C 31.402344 -6.617188 31.40625 -6.605469 31.410156 -6.597656 C 31.394531 -6.625 31.375 -6.652344 31.347656 -6.6875 C 31.253906 -6.808594 31.132812 -6.910156 30.984375 -6.996094 C 31.675781 -6.589844 33.066406 -6.386719 35.15625 -6.386719 L 39.898438 -6.386719 L 39.898438 4.742188 L -0.949219 4.742188 L -0.949219 -6.386719 L 3.792969 -6.386719 C 5.882812 -6.386719 7.273438 -6.589844 7.964844 -6.996094 C 7.820312 -6.910156 7.699219 -6.808594 7.601562 -6.6875 C 7.574219 -6.652344 7.554688 -6.625 7.542969 -6.597656 C 7.542969 -6.605469 7.550781 -6.617188 7.558594 -6.640625 C 7.703125 -7.019531 7.777344 -7.628906 7.777344 -8.472656 L 7.777344 -83.71875 C 7.777344 -84.613281 7.703125 -85.253906 7.550781 -85.648438 C 7.542969 -85.667969 7.539062 -85.683594 7.539062 -85.683594 C 7.554688 -85.652344 7.582031 -85.617188 7.613281 -85.574219 C 7.730469 -85.429688 7.878906 -85.308594 8.058594 -85.207031 C 7.34375 -85.605469 5.921875 -85.808594 3.792969 -85.808594 L -0.949219 -85.808594 Z M 8.535156 -90.550781 L 3.792969 -90.550781 L 3.792969 -95.292969 C 7.566406 -95.292969 10.53125 -94.691406 12.683594 -93.488281 C 15.734375 -91.78125 17.261719 -88.527344 17.261719 -83.71875 L 17.261719 -8.472656 C 17.261719 -3.796875 15.765625 -0.582031 12.773438 1.179688 C 10.597656 2.457031 7.605469 3.097656 3.792969 3.097656 L 3.792969 -1.644531 L 8.535156 -1.644531 L 8.535156 0 L 3.792969 0 L 3.792969 -4.742188 L 35.15625 -4.742188 L 35.15625 0 L 30.414062 0 L 30.414062 -1.644531 L 35.15625 -1.644531 L 35.15625 3.097656 C 31.34375 3.097656 28.351562 2.457031 26.175781 1.179688 C 23.183594 -0.582031 21.6875 -3.796875 21.6875 -8.472656 L 21.6875 -51.40625 L 44.640625 -51.40625 C 48.128906 -51.40625 51.703125 -51.667969 55.359375 -52.183594 C 58.753906 -52.664062 61.894531 -53.597656 64.78125 -54.988281 C 67.347656 -56.21875 69.421875 -58.003906 71.011719 -60.335938 C 72.527344 -62.566406 73.285156 -65.683594 73.285156 -69.683594 C 73.285156 -73.707031 72.496094 -76.796875 70.914062 -78.957031 C 69.25 -81.230469 66.976562 -82.957031 64.09375 -84.136719 C 60.804688 -85.480469 57.132812 -86.363281 53.074219 -86.78125 C 48.722656 -87.226562 44.269531 -87.449219 39.710938 -87.449219 L 3.792969 -87.449219 L 3.792969 -92.191406 L 8.535156 -92.191406 Z M 39.710938 -85.808594 L 26.429688 -85.808594 L 26.429688 -90.550781 L 31.171875 -90.550781 L 31.171875 -48.308594 L 26.429688 -48.308594 L 26.429688 -53.050781 L 39.964844 -53.050781 C 45.03125 -53.050781 49.101562 -53.546875 52.171875 -54.53125 C 54.570312 -55.304688 56.332031 -56.628906 57.449219 -58.511719 C 58.734375 -60.671875 59.375 -63.890625 59.375 -68.164062 C 59.375 -74.234375 57.855469 -78.667969 54.808594 -81.457031 C 51.648438 -84.355469 46.617188 -85.808594 39.710938 -85.808594 Z M 39.710938 -95.292969 C 49.078125 -95.292969 56.246094 -93.011719 61.222656 -88.449219 C 66.3125 -83.777344 68.859375 -77.015625 68.859375 -68.164062 C 68.859375 -62.152344 67.773438 -57.320312 65.601562 -53.664062 C 63.261719 -49.726562 59.753906 -47.007812 55.074219 -45.503906 C 51.058594 -44.210938 46.023438 -43.566406 39.964844 -43.566406 L 21.6875 -43.566406 L 21.6875 -95.292969 Z M 39.710938 -95.292969 "/></g></g></g><g fill="#ffffff" fill-opacity="1"><g transform="translate(65.825306, 165.828121)"><g><path d="M 3.796875 -90.546875 L 3.796875 -92.203125 L 39.71875 -92.203125 C 44.4375 -92.203125 49.050781 -91.96875 53.5625 -91.5 C 58.070312 -91.03125 62.179688 -90.035156 65.890625 -88.515625 C 69.597656 -87.003906 72.546875 -84.75 74.734375 -81.75 C 76.929688 -78.757812 78.03125 -74.738281 78.03125 -69.6875 C 78.03125 -64.707031 76.992188 -60.695312 74.921875 -57.65625 C 72.859375 -54.625 70.160156 -52.304688 66.828125 -50.703125 C 63.503906 -49.109375 59.898438 -48.035156 56.015625 -47.484375 C 52.140625 -46.941406 48.347656 -46.671875 44.640625 -46.671875 L 26.4375 -46.671875 L 26.4375 -8.46875 C 26.4375 -5.601562 27.148438 -3.75 28.578125 -2.90625 C 30.015625 -2.0625 32.207031 -1.640625 35.15625 -1.640625 L 35.15625 0 L 3.796875 0 L 3.796875 -1.640625 C 6.742188 -1.640625 8.929688 -2.0625 10.359375 -2.90625 C 11.796875 -3.75 12.515625 -5.601562 12.515625 -8.46875 L 12.515625 -83.71875 C 12.515625 -86.675781 11.796875 -88.550781 10.359375 -89.34375 C 8.929688 -90.144531 6.742188 -90.546875 3.796875 -90.546875 Z M 39.71875 -90.546875 L 26.4375 -90.546875 L 26.4375 -48.3125 L 39.96875 -48.3125 C 45.53125 -48.3125 50.082031 -48.878906 53.625 -50.015625 C 57.164062 -51.148438 59.800781 -53.171875 61.53125 -56.078125 C 63.257812 -58.992188 64.125 -63.023438 64.125 -68.171875 C 64.125 -83.085938 55.988281 -90.546875 39.71875 -90.546875 Z M 39.71875 -90.546875 "/></g></g></g></svg>