<svg xmlns="http://www.w3.org/2000/svg" xmlns:xlink="http://www.w3.org/1999/xlink" width="247" zoomAndPan="magnify" viewBox="0 0 185.25 173.249993" height="231" preserveAspectRatio="xMidYMid meet" version="1.0"><defs><g/><clipPath id="6fe8f4ba68"><rect x="0" width="157" y="0" height="35"/></clipPath></defs><g transform="matrix(1, 0, 0, 1, 14, 76)"><g clip-path="url(#6fe8f4ba68)"><g fill="#ffffff" fill-opacity="1"><g transform="translate(1.326846, 25.77217)"><g><path d="M 9.234375 0.109375 C 8.628906 0.109375 7.910156 0.0820312 7.078125 0.03125 C 6.773438 0.0078125 6.398438 -0.0078125 5.953125 -0.03125 C 5.515625 -0.0507812 5.023438 -0.0625 4.484375 -0.0625 L 2.375 -0.03125 C 2 -0.0078125 1.488281 0 0.84375 0 C 0.8125 0 0.796875 -0.0546875 0.796875 -0.171875 C 0.796875 -0.285156 0.8125 -0.34375 0.84375 -0.34375 C 1.445312 -0.34375 1.890625 -0.390625 2.171875 -0.484375 C 2.460938 -0.578125 2.660156 -0.757812 2.765625 -1.03125 C 2.867188 -1.3125 2.921875 -1.734375 2.921875 -2.296875 L 2.921875 -15.421875 C 2.921875 -15.984375 2.867188 -16.394531 2.765625 -16.65625 C 2.660156 -16.925781 2.46875 -17.113281 2.1875 -17.21875 C 1.914062 -17.320312 1.488281 -17.375 0.90625 -17.375 C 0.851562 -17.375 0.828125 -17.429688 0.828125 -17.546875 C 0.828125 -17.660156 0.851562 -17.71875 0.90625 -17.71875 L 2.40625 -17.6875 C 3.28125 -17.644531 3.972656 -17.625 4.484375 -17.625 C 5.253906 -17.625 6.046875 -17.65625 6.859375 -17.71875 C 7.835938 -17.75 8.5 -17.765625 8.84375 -17.765625 C 10.75 -17.765625 12.441406 -17.382812 13.921875 -16.625 C 15.410156 -15.875 16.5625 -14.847656 17.375 -13.546875 C 18.1875 -12.242188 18.59375 -10.78125 18.59375 -9.15625 C 18.59375 -7.320312 18.171875 -5.703125 17.328125 -4.296875 C 16.492188 -2.890625 15.363281 -1.800781 13.9375 -1.03125 C 12.507812 -0.269531 10.941406 0.109375 9.234375 0.109375 Z M 8.953125 -0.53125 C 10.160156 -0.53125 11.226562 -0.835938 12.15625 -1.453125 C 13.082031 -2.066406 13.804688 -2.976562 14.328125 -4.1875 C 14.847656 -5.40625 15.109375 -6.851562 15.109375 -8.53125 C 15.109375 -10.132812 14.863281 -11.59375 14.375 -12.90625 C 13.882812 -14.21875 13.179688 -15.25 12.265625 -16 C 11.359375 -16.757812 10.3125 -17.140625 9.125 -17.140625 C 7.957031 -17.140625 7.15625 -17.023438 6.71875 -16.796875 C 6.28125 -16.578125 6.0625 -16.097656 6.0625 -15.359375 L 6.0625 -2.609375 C 6.0625 -1.847656 6.257812 -1.3125 6.65625 -1 C 7.050781 -0.6875 7.816406 -0.53125 8.953125 -0.53125 Z M 8.953125 -0.53125 "/></g></g></g><g fill="#ffffff" fill-opacity="1"><g transform="translate(21.297347, 25.77217)"><g><path d="M 14.0625 -4.5 C 14.0625 -4.539062 14.097656 -4.5625 14.171875 -4.5625 C 14.222656 -4.5625 14.273438 -4.546875 14.328125 -4.515625 C 14.378906 -4.492188 14.40625 -4.472656 14.40625 -4.453125 C 14.207031 -2.972656 14.109375 -1.628906 14.109375 -0.421875 C 14.109375 -0.273438 14.078125 -0.164062 14.015625 -0.09375 C 13.960938 -0.03125 13.851562 0 13.6875 0 L 1.15625 0 C 1.101562 0 1.078125 -0.0546875 1.078125 -0.171875 C 1.078125 -0.285156 1.101562 -0.34375 1.15625 -0.34375 C 1.757812 -0.34375 2.195312 -0.390625 2.46875 -0.484375 C 2.75 -0.578125 2.9375 -0.757812 3.03125 -1.03125 C 3.125 -1.3125 3.171875 -1.734375 3.171875 -2.296875 L 3.171875 -15.421875 C 3.171875 -15.984375 3.125 -16.394531 3.03125 -16.65625 C 2.9375 -16.925781 2.75 -17.113281 2.46875 -17.21875 C 2.1875 -17.320312 1.75 -17.375 1.15625 -17.375 C 1.101562 -17.375 1.078125 -17.429688 1.078125 -17.546875 C 1.078125 -17.660156 1.101562 -17.71875 1.15625 -17.71875 L 13.1875 -17.71875 C 13.375 -17.71875 13.46875 -17.628906 13.46875 -17.453125 L 13.515625 -13.6875 C 13.515625 -13.65625 13.460938 -13.628906 13.359375 -13.609375 C 13.253906 -13.585938 13.195312 -13.601562 13.1875 -13.65625 C 12.875 -14.757812 12.359375 -15.570312 11.640625 -16.09375 C 10.929688 -16.625 9.988281 -16.890625 8.8125 -16.890625 L 7.96875 -16.890625 C 7.394531 -16.890625 6.976562 -16.765625 6.71875 -16.515625 C 6.457031 -16.273438 6.328125 -15.898438 6.328125 -15.390625 L 6.328125 -9.609375 L 8.671875 -9.609375 C 9.765625 -9.609375 10.601562 -9.796875 11.1875 -10.171875 C 11.78125 -10.554688 12.078125 -11.085938 12.078125 -11.765625 C 12.078125 -11.816406 12.128906 -11.84375 12.234375 -11.84375 C 12.335938 -11.84375 12.390625 -11.816406 12.390625 -11.765625 L 12.359375 -9.21875 L 12.390625 -7.84375 C 12.421875 -7.207031 12.4375 -6.703125 12.4375 -6.328125 C 12.4375 -6.285156 12.378906 -6.265625 12.265625 -6.265625 C 12.160156 -6.265625 12.109375 -6.285156 12.109375 -6.328125 C 12.109375 -7.097656 11.804688 -7.703125 11.203125 -8.140625 C 10.609375 -8.585938 9.753906 -8.8125 8.640625 -8.8125 L 6.328125 -8.8125 L 6.328125 -2.40625 C 6.328125 -1.863281 6.425781 -1.457031 6.625 -1.1875 C 6.832031 -0.925781 7.164062 -0.796875 7.625 -0.796875 L 8.5625 -0.796875 C 10.03125 -0.796875 11.207031 -1.097656 12.09375 -1.703125 C 12.988281 -2.304688 13.644531 -3.238281 14.0625 -4.5 Z M 14.0625 -4.5 "/></g></g></g><g fill="#ffffff" fill-opacity="1"><g transform="translate(36.933821, 25.77217)"><g><path d="M 14.0625 -4.5 C 14.0625 -4.539062 14.097656 -4.5625 14.171875 -4.5625 C 14.222656 -4.5625 14.273438 -4.546875 14.328125 -4.515625 C 14.378906 -4.492188 14.40625 -4.472656 14.40625 -4.453125 C 14.207031 -2.972656 14.109375 -1.628906 14.109375 -0.421875 C 14.109375 -0.273438 14.078125 -0.164062 14.015625 -0.09375 C 13.960938 -0.03125 13.851562 0 13.6875 0 L 1.15625 0 C 1.101562 0 1.078125 -0.0546875 1.078125 -0.171875 C 1.078125 -0.285156 1.101562 -0.34375 1.15625 -0.34375 C 1.757812 -0.34375 2.195312 -0.390625 2.46875 -0.484375 C 2.75 -0.578125 2.9375 -0.757812 3.03125 -1.03125 C 3.125 -1.3125 3.171875 -1.734375 3.171875 -2.296875 L 3.171875 -15.421875 C 3.171875 -15.984375 3.125 -16.394531 3.03125 -16.65625 C 2.9375 -16.925781 2.75 -17.113281 2.46875 -17.21875 C 2.1875 -17.320312 1.75 -17.375 1.15625 -17.375 C 1.101562 -17.375 1.078125 -17.429688 1.078125 -17.546875 C 1.078125 -17.660156 1.101562 -17.71875 1.15625 -17.71875 L 13.1875 -17.71875 C 13.375 -17.71875 13.46875 -17.628906 13.46875 -17.453125 L 13.515625 -13.6875 C 13.515625 -13.65625 13.460938 -13.628906 13.359375 -13.609375 C 13.253906 -13.585938 13.195312 -13.601562 13.1875 -13.65625 C 12.875 -14.757812 12.359375 -15.570312 11.640625 -16.09375 C 10.929688 -16.625 9.988281 -16.890625 8.8125 -16.890625 L 7.96875 -16.890625 C 7.394531 -16.890625 6.976562 -16.765625 6.71875 -16.515625 C 6.457031 -16.273438 6.328125 -15.898438 6.328125 -15.390625 L 6.328125 -9.609375 L 8.671875 -9.609375 C 9.765625 -9.609375 10.601562 -9.796875 11.1875 -10.171875 C 11.78125 -10.554688 12.078125 -11.085938 12.078125 -11.765625 C 12.078125 -11.816406 12.128906 -11.84375 12.234375 -11.84375 C 12.335938 -11.84375 12.390625 -11.816406 12.390625 -11.765625 L 12.359375 -9.21875 L 12.390625 -7.84375 C 12.421875 -7.207031 12.4375 -6.703125 12.4375 -6.328125 C 12.4375 -6.285156 12.378906 -6.265625 12.265625 -6.265625 C 12.160156 -6.265625 12.109375 -6.285156 12.109375 -6.328125 C 12.109375 -7.097656 11.804688 -7.703125 11.203125 -8.140625 C 10.609375 -8.585938 9.753906 -8.8125 8.640625 -8.8125 L 6.328125 -8.8125 L 6.328125 -2.40625 C 6.328125 -1.863281 6.425781 -1.457031 6.625 -1.1875 C 6.832031 -0.925781 7.164062 -0.796875 7.625 -0.796875 L 8.5625 -0.796875 C 10.03125 -0.796875 11.207031 -1.097656 12.09375 -1.703125 C 12.988281 -2.304688 13.644531 -3.238281 14.0625 -4.5 Z M 14.0625 -4.5 "/></g></g></g><g fill="#ffffff" fill-opacity="1"><g transform="translate(52.570295, 25.77217)"><g><path d="M 6.125 -2.40625 C 6.125 -1.800781 6.1875 -1.363281 6.3125 -1.09375 C 6.445312 -0.820312 6.695312 -0.628906 7.0625 -0.515625 C 7.4375 -0.398438 8.03125 -0.34375 8.84375 -0.34375 C 8.894531 -0.34375 8.921875 -0.285156 8.921875 -0.171875 C 8.921875 -0.0546875 8.894531 0 8.84375 0 C 8.070312 0 7.46875 -0.0078125 7.03125 -0.03125 L 4.5625 -0.0625 L 2.5 -0.03125 C 2.113281 -0.0078125 1.601562 0 0.96875 0 C 0.90625 0 0.875 -0.0546875 0.875 -0.171875 C 0.875 -0.285156 0.90625 -0.34375 0.96875 -0.34375 C 1.570312 -0.34375 2.007812 -0.390625 2.28125 -0.484375 C 2.550781 -0.578125 2.734375 -0.757812 2.828125 -1.03125 C 2.921875 -1.3125 2.96875 -1.734375 2.96875 -2.296875 L 2.96875 -15.421875 C 2.96875 -15.984375 2.921875 -16.394531 2.828125 -16.65625 C 2.734375 -16.925781 2.546875 -17.113281 2.265625 -17.21875 C 1.984375 -17.320312 1.550781 -17.375 0.96875 -17.375 C 0.90625 -17.375 0.875 -17.429688 0.875 -17.546875 C 0.875 -17.660156 0.90625 -17.71875 0.96875 -17.71875 L 2.46875 -17.6875 C 3.332031 -17.644531 4.019531 -17.625 4.53125 -17.625 C 4.988281 -17.625 5.53125 -17.65625 6.15625 -17.71875 C 6.394531 -17.738281 6.703125 -17.753906 7.078125 -17.765625 C 7.460938 -17.785156 7.898438 -17.796875 8.390625 -17.796875 C 10.316406 -17.796875 11.835938 -17.394531 12.953125 -16.59375 C 14.066406 -15.789062 14.625 -14.550781 14.625 -12.875 C 14.625 -11.695312 14.320312 -10.703125 13.71875 -9.890625 C 13.113281 -9.078125 12.332031 -8.460938 11.375 -8.046875 C 10.425781 -7.628906 9.453125 -7.421875 8.453125 -7.421875 C 7.941406 -7.421875 7.492188 -7.46875 7.109375 -7.5625 C 7.078125 -7.5625 7.0625 -7.609375 7.0625 -7.703125 C 7.0625 -7.765625 7.070312 -7.820312 7.09375 -7.875 C 7.125 -7.9375 7.160156 -7.957031 7.203125 -7.9375 C 7.484375 -7.863281 7.800781 -7.828125 8.15625 -7.828125 C 9.03125 -7.828125 9.753906 -8.234375 10.328125 -9.046875 C 10.910156 -9.859375 11.203125 -11.007812 11.203125 -12.5 C 11.203125 -13.988281 10.882812 -15.140625 10.25 -15.953125 C 9.613281 -16.765625 8.691406 -17.171875 7.484375 -17.171875 C 6.953125 -17.171875 6.59375 -17.046875 6.40625 -16.796875 C 6.21875 -16.554688 6.125 -16.078125 6.125 -15.359375 Z M 6.125 -2.40625 "/></g></g></g><g fill="#ffffff" fill-opacity="1"><g transform="translate(68.235088, 25.77217)"><g><path d="M 6.125 -2.40625 C 6.125 -1.800781 6.1875 -1.363281 6.3125 -1.09375 C 6.445312 -0.820312 6.695312 -0.628906 7.0625 -0.515625 C 7.4375 -0.398438 8.03125 -0.34375 8.84375 -0.34375 C 8.894531 -0.34375 8.921875 -0.285156 8.921875 -0.171875 C 8.921875 -0.0546875 8.894531 0 8.84375 0 C 8.070312 0 7.46875 -0.0078125 7.03125 -0.03125 L 4.5625 -0.0625 L 2.5 -0.03125 C 2.113281 -0.0078125 1.601562 0 0.96875 0 C 0.90625 0 0.875 -0.0546875 0.875 -0.171875 C 0.875 -0.285156 0.90625 -0.34375 0.96875 -0.34375 C 1.570312 -0.34375 2.007812 -0.390625 2.28125 -0.484375 C 2.550781 -0.578125 2.734375 -0.757812 2.828125 -1.03125 C 2.921875 -1.3125 2.96875 -1.734375 2.96875 -2.296875 L 2.96875 -15.421875 C 2.96875 -15.984375 2.921875 -16.394531 2.828125 -16.65625 C 2.734375 -16.925781 2.546875 -17.113281 2.265625 -17.21875 C 1.984375 -17.320312 1.550781 -17.375 0.96875 -17.375 C 0.90625 -17.375 0.875 -17.429688 0.875 -17.546875 C 0.875 -17.660156 0.90625 -17.71875 0.96875 -17.71875 L 2.46875 -17.6875 C 3.332031 -17.644531 4.019531 -17.625 4.53125 -17.625 C 4.988281 -17.625 5.53125 -17.65625 6.15625 -17.71875 C 6.394531 -17.738281 6.703125 -17.753906 7.078125 -17.765625 C 7.460938 -17.785156 7.898438 -17.796875 8.390625 -17.796875 C 10.316406 -17.796875 11.835938 -17.394531 12.953125 -16.59375 C 14.066406 -15.789062 14.625 -14.550781 14.625 -12.875 C 14.625 -11.695312 14.320312 -10.703125 13.71875 -9.890625 C 13.113281 -9.078125 12.332031 -8.460938 11.375 -8.046875 C 10.425781 -7.628906 9.453125 -7.421875 8.453125 -7.421875 C 7.941406 -7.421875 7.492188 -7.46875 7.109375 -7.5625 C 7.078125 -7.5625 7.0625 -7.609375 7.0625 -7.703125 C 7.0625 -7.765625 7.070312 -7.820312 7.09375 -7.875 C 7.125 -7.9375 7.160156 -7.957031 7.203125 -7.9375 C 7.484375 -7.863281 7.800781 -7.828125 8.15625 -7.828125 C 9.03125 -7.828125 9.753906 -8.234375 10.328125 -9.046875 C 10.910156 -9.859375 11.203125 -11.007812 11.203125 -12.5 C 11.203125 -13.988281 10.882812 -15.140625 10.25 -15.953125 C 9.613281 -16.765625 8.691406 -17.171875 7.484375 -17.171875 C 6.953125 -17.171875 6.59375 -17.046875 6.40625 -16.796875 C 6.21875 -16.554688 6.125 -16.078125 6.125 -15.359375 Z M 6.125 -2.40625 "/></g></g></g><g fill="#ffffff" fill-opacity="1"><g transform="translate(83.899882, 25.77217)"><g><path d="M 20.0625 -0.34375 C 20.101562 -0.34375 20.125 -0.285156 20.125 -0.171875 C 20.125 -0.0546875 20.101562 0 20.0625 0 L 15.015625 0 C 14.609375 0 13.835938 -0.75 12.703125 -2.25 C 11.566406 -3.75 10.195312 -5.851562 8.59375 -8.5625 C 8.4375 -8.539062 8.21875 -8.53125 7.9375 -8.53125 C 7.195312 -8.53125 6.675781 -8.539062 6.375 -8.5625 L 6.375 -2.296875 C 6.375 -1.710938 6.421875 -1.285156 6.515625 -1.015625 C 6.609375 -0.753906 6.789062 -0.578125 7.0625 -0.484375 C 7.34375 -0.390625 7.785156 -0.34375 8.390625 -0.34375 C 8.429688 -0.34375 8.453125 -0.285156 8.453125 -0.171875 C 8.453125 -0.0546875 8.429688 0 8.390625 0 C 7.765625 0 7.273438 -0.0078125 6.921875 -0.03125 L 4.765625 -0.0625 L 2.6875 -0.03125 C 2.3125 -0.0078125 1.800781 0 1.15625 0 C 1.101562 0 1.078125 -0.0546875 1.078125 -0.171875 C 1.078125 -0.285156 1.101562 -0.34375 1.15625 -0.34375 C 1.757812 -0.34375 2.195312 -0.390625 2.46875 -0.484375 C 2.75 -0.578125 2.941406 -0.757812 3.046875 -1.03125 C 3.148438 -1.3125 3.203125 -1.734375 3.203125 -2.296875 L 3.203125 -15.421875 C 3.203125 -15.984375 3.15625 -16.394531 3.0625 -16.65625 C 2.96875 -16.925781 2.773438 -17.113281 2.484375 -17.21875 C 2.203125 -17.320312 1.769531 -17.375 1.1875 -17.375 C 1.15625 -17.375 1.140625 -17.429688 1.140625 -17.546875 C 1.140625 -17.660156 1.15625 -17.71875 1.1875 -17.71875 L 2.6875 -17.6875 C 3.5625 -17.644531 4.253906 -17.625 4.765625 -17.625 C 5.398438 -17.625 6.070312 -17.65625 6.78125 -17.71875 C 7.019531 -17.738281 7.320312 -17.753906 7.6875 -17.765625 C 8.0625 -17.785156 8.472656 -17.796875 8.921875 -17.796875 C 10.640625 -17.796875 11.972656 -17.476562 12.921875 -16.84375 C 13.867188 -16.21875 14.34375 -15.335938 14.34375 -14.203125 C 14.34375 -13.160156 14.054688 -12.21875 13.484375 -11.375 C 12.921875 -10.539062 12.164062 -9.867188 11.21875 -9.359375 C 12.726562 -7.085938 13.992188 -5.304688 15.015625 -4.015625 C 16.035156 -2.734375 16.941406 -1.800781 17.734375 -1.21875 C 18.535156 -0.632812 19.3125 -0.34375 20.0625 -0.34375 Z M 6.375 -9.359375 C 6.832031 -9.273438 7.378906 -9.234375 8.015625 -9.234375 C 9.117188 -9.234375 9.910156 -9.539062 10.390625 -10.15625 C 10.867188 -10.769531 11.109375 -11.757812 11.109375 -13.125 C 11.109375 -14.675781 10.878906 -15.742188 10.421875 -16.328125 C 9.972656 -16.910156 9.320312 -17.203125 8.46875 -17.203125 C 7.71875 -17.203125 7.179688 -17.0625 6.859375 -16.78125 C 6.535156 -16.5 6.375 -16.023438 6.375 -15.359375 Z M 6.375 -9.359375 "/></g></g></g><g fill="#ffffff" fill-opacity="1"><g transform="translate(103.672092, 25.77217)"><g><path d="M 6.4375 -2.296875 C 6.4375 -1.710938 6.484375 -1.285156 6.578125 -1.015625 C 6.671875 -0.753906 6.851562 -0.578125 7.125 -0.484375 C 7.40625 -0.390625 7.847656 -0.34375 8.453125 -0.34375 C 8.503906 -0.34375 8.53125 -0.285156 8.53125 -0.171875 C 8.53125 -0.0546875 8.503906 0 8.453125 0 C 7.828125 0 7.332031 -0.0078125 6.96875 -0.03125 L 4.8125 -0.0625 L 2.71875 -0.03125 C 2.34375 -0.0078125 1.832031 0 1.1875 0 C 1.15625 0 1.140625 -0.0546875 1.140625 -0.171875 C 1.140625 -0.285156 1.15625 -0.34375 1.1875 -0.34375 C 1.789062 -0.34375 2.234375 -0.390625 2.515625 -0.484375 C 2.804688 -0.578125 3.003906 -0.757812 3.109375 -1.03125 C 3.210938 -1.3125 3.265625 -1.734375 3.265625 -2.296875 L 3.265625 -15.421875 C 3.265625 -15.984375 3.210938 -16.394531 3.109375 -16.65625 C 3.003906 -16.925781 2.804688 -17.113281 2.515625 -17.21875 C 2.234375 -17.320312 1.789062 -17.375 1.1875 -17.375 C 1.15625 -17.375 1.140625 -17.429688 1.140625 -17.546875 C 1.140625 -17.660156 1.15625 -17.71875 1.1875 -17.71875 L 2.71875 -17.6875 C 3.59375 -17.644531 4.289062 -17.625 4.8125 -17.625 C 5.40625 -17.625 6.132812 -17.644531 7 -17.6875 L 8.453125 -17.71875 C 8.503906 -17.71875 8.53125 -17.660156 8.53125 -17.546875 C 8.53125 -17.429688 8.503906 -17.375 8.453125 -17.375 C 7.859375 -17.375 7.421875 -17.316406 7.140625 -17.203125 C 6.859375 -17.085938 6.671875 -16.894531 6.578125 -16.625 C 6.484375 -16.351562 6.4375 -15.929688 6.4375 -15.359375 Z M 6.4375 -2.296875 "/></g></g></g><g fill="#ffffff" fill-opacity="1"><g transform="translate(113.359906, 25.77217)"><g><path d="M 10.375 0.34375 C 8.613281 0.34375 7.046875 -0.0664062 5.671875 -0.890625 C 4.304688 -1.710938 3.25 -2.828125 2.5 -4.234375 C 1.757812 -5.640625 1.390625 -7.175781 1.390625 -8.84375 C 1.390625 -10.789062 1.878906 -12.457031 2.859375 -13.84375 C 3.847656 -15.226562 5.109375 -16.269531 6.640625 -16.96875 C 8.179688 -17.675781 9.753906 -18.03125 11.359375 -18.03125 C 13.160156 -18.03125 14.738281 -17.609375 16.09375 -16.765625 C 17.457031 -15.921875 18.503906 -14.804688 19.234375 -13.421875 C 19.960938 -12.046875 20.328125 -10.585938 20.328125 -9.046875 C 20.328125 -7.328125 19.867188 -5.75 18.953125 -4.3125 C 18.046875 -2.875 16.832031 -1.738281 15.3125 -0.90625 C 13.789062 -0.0703125 12.144531 0.34375 10.375 0.34375 Z M 11.3125 -0.375 C 12.363281 -0.375 13.3125 -0.675781 14.15625 -1.28125 C 15 -1.894531 15.65625 -2.789062 16.125 -3.96875 C 16.601562 -5.15625 16.84375 -6.570312 16.84375 -8.21875 C 16.84375 -9.957031 16.578125 -11.507812 16.046875 -12.875 C 15.515625 -14.25 14.75 -15.320312 13.75 -16.09375 C 12.75 -16.875 11.578125 -17.265625 10.234375 -17.265625 C 8.515625 -17.265625 7.191406 -16.613281 6.265625 -15.3125 C 5.335938 -14.019531 4.875 -12.210938 4.875 -9.890625 C 4.875 -8.054688 5.148438 -6.414062 5.703125 -4.96875 C 6.265625 -3.53125 7.03125 -2.40625 8 -1.59375 C 8.976562 -0.78125 10.082031 -0.375 11.3125 -0.375 Z M 11.3125 -0.375 "/></g></g></g><g fill="#ffffff" fill-opacity="1"><g transform="translate(135.058345, 25.77217)"><g><path d="M 20.0625 -0.34375 C 20.101562 -0.34375 20.125 -0.285156 20.125 -0.171875 C 20.125 -0.0546875 20.101562 0 20.0625 0 L 15.015625 0 C 14.609375 0 13.835938 -0.75 12.703125 -2.25 C 11.566406 -3.75 10.195312 -5.851562 8.59375 -8.5625 C 8.4375 -8.539062 8.21875 -8.53125 7.9375 -8.53125 C 7.195312 -8.53125 6.675781 -8.539062 6.375 -8.5625 L 6.375 -2.296875 C 6.375 -1.710938 6.421875 -1.285156 6.515625 -1.015625 C 6.609375 -0.753906 6.789062 -0.578125 7.0625 -0.484375 C 7.34375 -0.390625 7.785156 -0.34375 8.390625 -0.34375 C 8.429688 -0.34375 8.453125 -0.285156 8.453125 -0.171875 C 8.453125 -0.0546875 8.429688 0 8.390625 0 C 7.765625 0 7.273438 -0.0078125 6.921875 -0.03125 L 4.765625 -0.0625 L 2.6875 -0.03125 C 2.3125 -0.0078125 1.800781 0 1.15625 0 C 1.101562 0 1.078125 -0.0546875 1.078125 -0.171875 C 1.078125 -0.285156 1.101562 -0.34375 1.15625 -0.34375 C 1.757812 -0.34375 2.195312 -0.390625 2.46875 -0.484375 C 2.75 -0.578125 2.941406 -0.757812 3.046875 -1.03125 C 3.148438 -1.3125 3.203125 -1.734375 3.203125 -2.296875 L 3.203125 -15.421875 C 3.203125 -15.984375 3.15625 -16.394531 3.0625 -16.65625 C 2.96875 -16.925781 2.773438 -17.113281 2.484375 -17.21875 C 2.203125 -17.320312 1.769531 -17.375 1.1875 -17.375 C 1.15625 -17.375 1.140625 -17.429688 1.140625 -17.546875 C 1.140625 -17.660156 1.15625 -17.71875 1.1875 -17.71875 L 2.6875 -17.6875 C 3.5625 -17.644531 4.253906 -17.625 4.765625 -17.625 C 5.398438 -17.625 6.070312 -17.65625 6.78125 -17.71875 C 7.019531 -17.738281 7.320312 -17.753906 7.6875 -17.765625 C 8.0625 -17.785156 8.472656 -17.796875 8.921875 -17.796875 C 10.640625 -17.796875 11.972656 -17.476562 12.921875 -16.84375 C 13.867188 -16.21875 14.34375 -15.335938 14.34375 -14.203125 C 14.34375 -13.160156 14.054688 -12.21875 13.484375 -11.375 C 12.921875 -10.539062 12.164062 -9.867188 11.21875 -9.359375 C 12.726562 -7.085938 13.992188 -5.304688 15.015625 -4.015625 C 16.035156 -2.734375 16.941406 -1.800781 17.734375 -1.21875 C 18.535156 -0.632812 19.3125 -0.34375 20.0625 -0.34375 Z M 6.375 -9.359375 C 6.832031 -9.273438 7.378906 -9.234375 8.015625 -9.234375 C 9.117188 -9.234375 9.910156 -9.539062 10.390625 -10.15625 C 10.867188 -10.769531 11.109375 -11.757812 11.109375 -13.125 C 11.109375 -14.675781 10.878906 -15.742188 10.421875 -16.328125 C 9.972656 -16.910156 9.320312 -17.203125 8.46875 -17.203125 C 7.71875 -17.203125 7.179688 -17.0625 6.859375 -16.78125 C 6.535156 -16.5 6.375 -16.023438 6.375 -15.359375 Z M 6.375 -9.359375 "/></g></g></g></g></g></svg>